<?xml version="1.0" encoding="utf-8"?>
<!-- Generator: Adobe Illustrator 23.0.3, SVG Export Plug-In . SVG Version: 6.00 Build 0)  -->
<svg version="1.1" id="Layer_1" xmlns="http://www.w3.org/2000/svg" xmlns:xlink="http://www.w3.org/1999/xlink" x="0px" y="0px"
	 viewBox="0 0 40 40" style="enable-background:new 0 0 40 40;" xml:space="preserve">
<style type="text/css">
	.st0{fill:#F9C638;}
	.st1{fill:#94C6D3;}
	.st2{fill:#4C54A4;}
	.st3{fill:#F5886A;}
</style>
<g>
	<path class="st0" d="M19.1,20c-7.3-5.8-16-8.5-16.1-8.5c-1.4,2.6-2.2,5.6-2.2,8.8c0,10.5,8.5,19,19,19c2.2,0,4.3-0.4,6.3-1.1
		C19.9,33.6,18.5,26.6,19.1,20z"/>
	<path class="st1" d="M24.2,1.8c-1.4-0.3-2.9-0.6-4.5-0.6c-7.3,0-13.7,4.1-16.8,10.2c0.1,0,8.9,2.7,16.1,8.5
		C19.8,10.6,24.1,2,24.2,1.8z"/>
	<path class="st2" d="M24.2,1.8C24.2,1.8,24.2,1.8,24.2,1.8C24.1,2,19.8,10.6,19.1,20c2.4,1.9,4.7,4.2,6.4,6.9
		c1.9,2.9,3.2,6.3,3.2,10.2c6-3.2,10.1-9.5,10.1-16.8C38.8,11.3,32.6,3.8,24.2,1.8z"/>
	<path class="st3" d="M25.5,26.8c-1.7-2.7-4-4.9-6.4-6.9c-0.5,6.7,0.9,13.7,7,18.2c0,0,0,0,0,0c0.9-0.3,1.8-0.7,2.6-1.1
		C28.6,33.2,27.4,29.8,25.5,26.8z"/>
</g>
</svg>
