<?xml version="1.0" encoding="utf-8"?>
<!-- Generator: Adobe Illustrator 23.0.3, SVG Export Plug-In . SVG Version: 6.00 Build 0)  -->
<svg version="1.1" id="Layer_1" xmlns="http://www.w3.org/2000/svg" xmlns:xlink="http://www.w3.org/1999/xlink" x="0px" y="0px"
	 viewBox="0 0 34 28" style="enable-background:new 0 0 34 28;" xml:space="preserve">
<style type="text/css">
	.st0{fill:url(#folder_1_);}
	.st1{fill:#E2AC5F;}
</style>
<g id="_3_petitdossier">
	<g id="folder-icon" transform="translate(82 99)">
		
			<linearGradient id="folder_1_" gradientUnits="userSpaceOnUse" x1="-85.9687" y1="-60.4231" x2="-85.9687" y2="-61.4231" gradientTransform="matrix(32.0002 0 0 -26 2686.0166 -1669)">
			<stop  offset="0" style="stop-color:#F7D8AF"/>
			<stop  offset="1" style="stop-color:#FAD19A"/>
		</linearGradient>
		<path id="folder" class="st0" d="M-52.2-94.8h-8.9c-0.4,0-0.8-0.2-1.1-0.5l-2.3-2.3c-0.3-0.3-0.7-0.5-1.1-0.5h-12.1
			c-1.8,0-3.2,1.5-3.2,3.2c0,0,0,0,0,0v19.5c0,1.8,1.4,3.2,3.2,3.3c0,0,0,0,0,0h25.6c1.8,0,3.2-1.5,3.2-3.2c0,0,0,0,0,0v-16.3
			C-49-93.3-50.4-94.7-52.2-94.8C-52.2-94.8-52.2-94.8-52.2-94.8z"/>
		<path id="people" class="st1" d="M-60.5-78c0.2-0.6,0.2-1.2-0.1-1.7l-1.1-2h1.6c0.9,0,1.8,0.4,2.2,1.2l0.8,1.4
			c0.1,0.2,0.1,0.5,0,0.7c-0.2,0.2-0.4,0.4-0.7,0.3H-60.5z M-72.2-78c-0.3,0-0.5-0.1-0.7-0.4c-0.1-0.2-0.2-0.5,0-0.7l1.2-2.2
			c0.4-0.8,1.3-1.3,2.2-1.3h4.5c0.9,0,1.7,0.5,2.2,1.3l1.2,2.2c0.1,0.2,0.1,0.5,0,0.7c-0.2,0.2-0.4,0.4-0.7,0.4H-72.2z M-63.6-85.3
			c0-1,0.9-1.9,1.9-1.8c1,0,1.8,0.8,1.8,1.8c0,1-0.9,1.9-1.9,1.8C-62.8-83.5-63.6-84.3-63.6-85.3z M-70.2-86.7
			c0-1.3,1.1-2.3,2.4-2.3c1.3,0,2.3,1,2.4,2.3c0,1.3-1.1,2.3-2.4,2.3C-69.1-84.4-70.2-85.4-70.2-86.7
			C-70.2-86.7-70.2-86.7-70.2-86.7z"/>
	</g>
</g>
</svg>
