<svg xmlns="http://www.w3.org/2000/svg" xmlns:xlink="http://www.w3.org/1999/xlink" width="318" height="366" viewBox="0 0 318 366">
  <defs>
    <clipPath id="clip-path">
      <rect id="bg" width="260" height="260" rx="12" fill="#fff"/>
    </clipPath>
    <clipPath id="clip-path-2">
      <path id="Clip_1259" data-name="Clip 1259" d="M0,8.687A79.8,79.8,0,0,0,4.72,1.446C6.16,1.02,7.6.537,9.08,0L9,.3S1.76,8.266,0,8.687Z" transform="translate(0.32 0.091)" fill="none"/>
    </clipPath>
    <linearGradient id="linear-gradient" x1="0.5" x2="0.5" y2="1" gradientUnits="objectBoundingBox">
      <stop offset="0" stop-color="#ffdd02"/>
      <stop offset="1" stop-color="#ffbc17"/>
    </linearGradient>
    <clipPath id="clip-_5_illustration">
      <rect width="318" height="366"/>
    </clipPath>
  </defs>
  <g id="_5_illustration" data-name="#5_illustration" clip-path="url(#clip-_5_illustration)">
    <g id="right-sidebar" transform="translate(361 51)">
      <g id="refer-friend-card" transform="translate(-334 -7)">
        <g id="illustration">
          <g id="illustration-2" data-name="illustration" clip-path="url(#clip-path)">
            <g id="illustration-3" data-name="illustration" transform="translate(18 97)">
              <g id="Group_1257" data-name="Group 1257" transform="translate(58.4 46)">
                <path id="Fill_1254" data-name="Fill 1254" d="M0,52.21c.16,20.354,19.022,53.929,42.16,54.776,17.384.635,59.264-20.175,61.742-42.857C105.422,50.183,89.118-6.8,43.68.671,24.618,3.806-.2,26.645,0,52.21Z" transform="translate(11.6 0)" fill="#c4e2e6"/>
                <path id="Fill_1255" data-name="Fill 1255" d="M9.439,2.608c-.52,1.9-8,13.117-9.08,12.9C-1.561,15.134,4.759.5,6.4.1a2.312,2.312,0,0,1,3.04,2.508" transform="translate(0.161 151.521)" fill="#784b63"/>
                <path id="Fill_1256" data-name="Fill 1256" d="M67.38,12.72C63.02,53.079,3.62,82.977,1.42,81.906s-1.56-2.532,0-3.2C31.26,65.647,46.94,24.786,50.18.722c.52-3.69,17.68,7.751,17.2,12" transform="translate(7.14 71.675)" fill="#eb8268"/>
              </g>
              <g id="Group_1260" data-name="Group 1260" transform="translate(120.8 149.6)">
                <path id="Clip_1259-2" data-name="Clip 1259" d="M0,8.687A79.8,79.8,0,0,0,4.72,1.446C6.16,1.02,7.6.537,9.08,0L9,.3S1.76,8.266,0,8.687Z" transform="translate(0.32 0.091)" fill="none"/>
                <g id="Group_1260-2" data-name="Group 1260" clip-path="url(#clip-path-2)">
                  <path id="Fill_1258" data-name="Fill 1258" d="M0,8.687H9.08V0H0Z" transform="translate(0.32 0.091)" fill="#fffffe"/>
                </g>
              </g>
              <g id="Group_1273" data-name="Group 1273" transform="translate(62.8 124.2)">
                <path id="Fill_1263" data-name="Fill 1263" d="M0,21.074A63.918,63.918,0,0,0,10.52,0a58.185,58.185,0,0,1-5.8,13.832A79.8,79.8,0,0,1,0,21.074" transform="translate(58.32 13.104)" fill="#efa630"/>
                <path id="Fill_1265" data-name="Fill 1265" d="M.24,1.2h0L0,.452Q.6.236,1.2,0C1,.3.72.682.48,1.123L.24,1.2" transform="translate(0.16 74.177)" fill="#fffffe"/>
                <path id="Fill_1266" data-name="Fill 1266" d="M0,1.695C.24,1.254.52.873.72.572,1.2.39,1.64.2,2.12,0V.162a1.217,1.217,0,0,0,.16.624Q1.14,1.273,0,1.695" transform="translate(0.64 73.605)" fill="#784b63"/>
                <path id="Fill_1267" data-name="Fill 1267" d="M.28.624A1.217,1.217,0,0,1,.12,0,1.214,1.214,0,0,0,.28.623h0" transform="translate(2.64 73.767)" fill="#efa630"/>
                <path id="Fill_1268" data-name="Fill 1268" d="M.261,26.587c-.32,0-.36-.354-.04-1.208,2-5.19,1.6-11.136.12-16.339A63.676,63.676,0,0,0,3.461,0c2.6,1.768,5.08,3.6,7.48,5.5A63.918,63.918,0,0,1,.421,26.569a1.164,1.164,0,0,1-.16.018" transform="translate(57.899 7.609)" fill="#de7960"/>
                <path id="Fill_1269" data-name="Fill 1269" d="M0,3.481H0C.28,2.3.52,1.138.76,0h0C.52,1.137.28,2.3,0,3.481" transform="translate(51.08 0.695)" fill="#df882f"/>
                <path id="Fill_1270" data-name="Fill 1270" d="M6.8,14.788C5.12,9.584,2.4,5.277,0,3.481.28,2.3.52,1.137.76,0A4.111,4.111,0,0,0,2.24,1.9c2.56,1.456,5,2.975,7.36,4.552a59.532,59.532,0,0,1-2.8,8.336" transform="translate(51.08 0.695)" fill="#de7960"/>
                <path id="Fill_1271" data-name="Fill 1271" d="M.2.281v0" transform="translate(2.56 73.486)" fill="#df882f"/>
                <path id="Fill_1272" data-name="Fill 1272" d="M.16,67.243A1.214,1.214,0,0,1,0,66.62v-.162c11.52-4.9,24.44-14.988,35.8-28.066C44.52,28.417,51.2,17.95,55.12,8.336A59.532,59.532,0,0,0,57.92,0c.2.153.44.308.68.462A63.676,63.676,0,0,1,55.48,9.5C45.76,32.378,21.64,58.181.16,67.243" transform="translate(2.76 7.148)" fill="#db7055"/>
              </g>
              <g id="Group_1277" data-name="Group 1277" transform="translate(113.2 105.2)">
                <path id="Fill_1274" data-name="Fill 1274" d="M2.6.084c2.56,1.364,10.8,13.414,10,14.8S.6,5.4.2,4.083c-.88-2.731,1.44-4.5,2.4-4" transform="translate(67.124 115.094)" fill="#784b63"/>
                <path id="Fill_1276" data-name="Fill 1276" d="M6.138,1.9c-8.12,4.687-6.92,17.686-3.6,19.6,47.2,27.144,63.6,76.852,65.2,94.382.16,1.693,1.96.613,2-1.2C71.378,55.367,26.5,6.057,16.538,1.1c-3.44-1.716-6.6-1.4-10.4.8" transform="translate(0.382 0.103)" fill="#f98e73"/>
              </g>
              <g id="Group_1286" data-name="Group 1286" transform="translate(113.4 108.8)">
                <path id="Fill_1280" data-name="Fill 1280" d="M.92,10.984A50.492,50.492,0,0,0,0,0,75.821,75.821,0,0,1,1.76,9.635a2.942,2.942,0,0,0-.84,1.349" transform="translate(66.16 102.45)" fill="#fffffe"/>
                <path id="Fill_1281" data-name="Fill 1281" d="M.4,2.692h0l-.04,0A.429.429,0,0,1,0,2.256a6.658,6.658,0,0,0,.08-.907A2.942,2.942,0,0,1,.92,0V.119A19.43,19.43,0,0,1,.8,2.326a.393.393,0,0,1-.4.366" transform="translate(67 112.085)" fill="#784b63"/>
                <path id="Fill_1282" data-name="Fill 1282" d="M1.76,9.758V9.639A75.821,75.821,0,0,0,0,0V0A71.628,71.628,0,0,1,1.76,9.756h0" transform="translate(66.16 102.446)" fill="#f4b927"/>
                <path id="Fill_1284" data-name="Fill 1284" d="M0,4.177A12.474,12.474,0,0,1,2.56.238C3.64.12,5,0,6.2,0h.12c1.64,0,3,.214,3.04.9C9.52,2.388,2.8,2.91,0,4.177" transform="translate(1.4 0.004)" fill="#df882f"/>
                <path id="Fill_1285" data-name="Fill 1285" d="M67.28,106.439a71.627,71.627,0,0,0-1.76-9.756c-2.16-12.276-8-29.515-17.68-47.23C29.68,15.955,11.12,4.606,0,.787A5.766,5.766,0,0,0,.2,0C8.92,2.94,17.56,8.786,25.96,17.417c8,8.266,15.84,19.212,22.6,31.653C59.8,69.756,67.4,93.26,67.28,106.439" transform="translate(0.64 5.763)" fill="#db7055"/>
              </g>
              <g id="Group_1290" data-name="Group 1290" transform="translate(45.6 15.2)">
                <path id="Fill_1287" data-name="Fill 1287" d="M51.565,11.474c7.32-1.552,14.44-16.674,22-9.6,18.24,17.09-.36,49.964-2.4,52.4s.6,13.92-4,19.2c-2.92,3.323-6.48,3.048-10.28,2.772-3.44-.252-7.08-.506-10.52,2.028-3.32,2.446-3.16,9.057-10.4,9.2a11.939,11.939,0,0,1-7.96-2.616c-1.92-1.427-3.36-2.855-5.64-2.584-9.24,1.089-14.72,9.123-19.6,2.8-5.64-7.285,5.76-16.4,6.8-20,2.28-7.86-12-9.084-9.2-20.4,2.64-10.658,14.48-10.654,20.4-16,7.56-6.824,5.12-18.97,12.4-22,4.44-1.846,7.2.141,9.96,2.127,2.4,1.717,4.84,3.436,8.44,2.673" transform="translate(0.155 0.225)" fill="url(#linear-gradient)"/>
                <path id="Fill_1289" data-name="Fill 1289" d="M5.565,13.884c32.48,12.174,27.88-1.677,20.8-13.2-.48-.758,1.64-.876,2-.4,10.2,14.86,13.88,31.872-28,24.4-1.8-.323,3.56-11.406,5.2-10.8" transform="translate(83.755 28.215)" fill="#5348e3"/>
              </g>
              <g id="Group_1295" data-name="Group 1295" transform="translate(135.2 56.4)">
                <path id="Fill_1291" data-name="Fill 1291" d="M1,12.556c-.32-.474-.68-.943-1-1.41a8.366,8.366,0,0,0,4.72-7.83A15.733,15.733,0,0,0,4.52.992C4.56.264,4.76.013,5,0h.04c.48.025,1.04.867,1.04.867v6.8L1,12.556" transform="translate(24.48 0.032)" fill="#fffffe"/>
                <path id="Fill_1294" data-name="Fill 1294" d="M11.8,12.494a83.237,83.237,0,0,1-10.56-.758A38.179,38.179,0,0,1,0,5.5C6.92,7.96,12.52,9.022,16.88,9.022c8,0,11.8-3.63,11.92-8.748,0-.1.04-.19.04-.274a15.733,15.733,0,0,1,.2,2.325c0,5.906-4.48,10.17-17.24,10.17" transform="translate(0.16 1.024)" fill="#2d3182"/>
              </g>
              <g id="Group_1299" data-name="Group 1299" transform="translate(109.2 38.4)">
                <path id="Fill_1296" data-name="Fill 1296" d="M.014,4.926c-.32-.842,5.04-5.771,6-4.8.92.971.96,3.434.4,4a12.548,12.548,0,0,1-4,2,2.394,2.394,0,0,1-2.4-1.2" transform="translate(46.506 0.373)" fill="#f2bcb6"/>
                <path id="Fill_1298" data-name="Fill 1298" d="M0,5.853C8.8,25.8,10.4,42.364,9.8,52.67c-.12,1.9,10.76,4.121,12.84.572.92-1.562,3.48-21.036,2.68-28.648,1.92-.81,3.76-4.185,3.04-5.984A40.72,40.72,0,0,1,25.6,3.178,38.434,38.434,0,0,1,18.8.366c-.48-.286-.92-.035-1.36.216-.4.257-.8.514-1.12.2C15-.513,11.92.03,11.12.778c-.28.284-.76.084-1.2-.116C9.52.473,9.12.284,8.84.5,6.48,2.557,4.2,3.744,0,5.853" transform="translate(0.24 15.721)" fill="#5348e3"/>
              </g>
              <g id="Group_1304" data-name="Group 1304" transform="translate(119.6 73.2)">
                <path id="Fill_1302" data-name="Fill 1302" d="M0,5.172A6.353,6.353,0,0,0,2.88,0,6.353,6.353,0,0,1,0,5.172" transform="translate(15.48 0.186)" fill="#4a5256"/>
                <path id="Fill_1303" data-name="Fill 1303" d="M5.56,5.883c-2.48,0-4.64-.2-5.28-.77A1.118,1.118,0,0,1,0,4.371v-.06C.04,3.029,1.44,1.046,2.72,1.046a1.021,1.021,0,0,1,.36.066,5.571,5.571,0,0,0,1.48.132C8,1.244,15.72.319,18.08,0A6.353,6.353,0,0,1,15.2,5.172a67.743,67.743,0,0,1-9.64.71" transform="translate(0.28 0.186)" fill="#383d95"/>
              </g>
              <g id="Group_1309" data-name="Group 1309" transform="translate(113.2 11.2)">
                <path id="Fill_1305" data-name="Fill 1305" d="M.869,2.487c1.36.379,9.8,1.532,10.04-.382C11.109.19,2.029-.56.949.45-.091,1.46-.491,2.107.869,2.487" transform="translate(0.131 96.141)" fill="#f2bcb6"/>
                <path id="Fill_1307" data-name="Fill 1307" d="M4.546,18.567c-2.8,1.05-5.4,4.211-4.28,7.412,1.08,3.2,5.24,3.448,7.6,2.808a182.2,182.2,0,0,1,18.2-2.433c2.64-.142,5.48,1.445,7.8,3.034,2.48,1.678,4.32,3.355,4.68,2.992,3.32-3.4,1.04-29.4-4.92-32.326-1.8-.876-4.28,9.218-8.6,10.71-11.2,3.895-19.16,7.3-20.48,7.8" transform="translate(30.494 0.092)" fill="#d8e0f7"/>
                <path id="Fill_1308" data-name="Fill 1308" d="M0,1.113c.04.659,3.64,6.817,4.76,6.83,1.08.012,2.2-.1,2.4-.784.16-.685-.68-.59-1.2-1.208S5,1.206,4.4.341-.079.454,0,1.113" transform="translate(41.079 25.842)" fill="#49a1cd"/>
              </g>
              <g id="Group_1322" data-name="Group 1322" transform="translate(141.2 29.8)">
                <path id="Fill_1313" data-name="Fill 1313" d="M2.18,4.068C1.54,2.839.82,1.6.06.394A.35.35,0,0,1,.06,0a2.4,2.4,0,0,0,2.2,1.205,1.489,1.489,0,0,0,.2-.01,1.526,1.526,0,0,0,.36-.077c.6.9,1.16,1.808,1.72,2.716l-2.36.234" transform="translate(14.46 13.904)" fill="#3d43a2"/>
                <path id="Fill_1314" data-name="Fill 1314" d="M2.211,6.136a2.391,2.391,0,0,1-2.2-1.205V4.926C-.082,4.657.417,4,.851,3.5A11.189,11.189,0,0,0,2.891,6.016l-.055.016-.065.017a1.521,1.521,0,0,1-.36.077A1.492,1.492,0,0,1,2.211,6.136Zm3.2-1.321h0c-.061-.037-.13-.073-.2-.111a2.158,2.158,0,0,1-.676-.484,9.908,9.908,0,0,1-.81-2.9l0-.014L3.651.97A4.353,4.353,0,0,1,5.691,0a.434.434,0,0,1,.32.126,3.6,3.6,0,0,1,.755,2.152,2.751,2.751,0,0,1-.355,1.848,5.679,5.679,0,0,1-1,.688Z" transform="translate(14.509 8.973)" fill="#f2bcb6"/>
                <path id="Fill_1315" data-name="Fill 1315" d="M4.28,6.154H4.16a.806.806,0,0,1-.44-.2A10.912,10.912,0,0,1,1.68,3.445,28.934,28.934,0,0,1,0,.629C1.24.428,2.72.212,4.28,0c.08.288.12.6.2.912a11.743,11.743,0,0,0,.88,3.249,3.063,3.063,0,0,0,.88.6c.24.134.4.284.32.613-.2.652-1.2.785-2.28.785" transform="translate(13.68 9.032)" fill="#6d7897"/>
                <path id="Fill_1316" data-name="Fill 1316" d="M1.054,2.349.214.982A2.017,2.017,0,0,1,.014,0l1.04,2.349" transform="translate(0.346 6.918)" fill="#fffffe"/>
                <path id="Fill_1318" data-name="Fill 1318" d="M.04,6.458A4.347,4.347,0,0,1,0,5.74C0,3.224,2.04.952,4.28,0c-.72,1.256-.68,3.487-.16,5.586-1.72.4-3.12.72-4.08.872" transform="translate(2.52 0.168)" fill="#6d7897"/>
                <path id="Fill_1319" data-name="Fill 1319" d="M34.28,12.591c-.6,0-2.32-1.521-4.56-3.042-2.2-1.522-4.92-3.043-7.44-3.043q-.18,0-.36.009c-2,.11-6.52.631-10.6,1.186a6.063,6.063,0,0,0-.48-1.45,1.379,1.379,0,0,0-1.12-.341c-1.36,0-3.36.639-3.28,1.113a5.109,5.109,0,0,0,.6,1.306c-1.52.24-2.72.458-3.32.617a8.248,8.248,0,0,1-1.04.207C1.48,8.38.52,6.464,0,4.424,2.08,3.935,4.56,3.317,7.16,2.7,12.8,1.349,18.92,0,22.16,0c1.12,0,1.92.17,2.16.568,4.32,6.441,7.04,10.42,8.96,10.42a1.39,1.39,0,0,0,.24-.021,14.844,14.844,0,0,1,1.56-.288.61.61,0,0,1,.2.024,3.976,3.976,0,0,1-.88,1.836.184.184,0,0,1-.12.05" transform="translate(6.64 1.33)" fill="#e4ebff"/>
                <path id="Fill_1320" data-name="Fill 1320" d="M.6,2.42h0A5.109,5.109,0,0,1,0,1.113C-.078.639,1.922,0,3.282,0A1.379,1.379,0,0,1,4.4.341a6.063,6.063,0,0,1,.48,1.45C3.322,2,1.842,2.219.6,2.42" transform="translate(13.078 7.242)" fill="#6d7897"/>
                <path id="Fill_1321" data-name="Fill 1321" d="M5.56,4.808C3.4,4.808,1,4.04.2,1.717A6.533,6.533,0,0,1,0,.872C.96.72,2.36.4,4.08,0,4.6,2.04,5.56,3.956,6.76,4.731a8.816,8.816,0,0,1-1.2.077" transform="translate(2.56 5.754)" fill="#6d7897"/>
              </g>
              <g id="Group_1328" data-name="Group 1328" transform="translate(94.4 12.8)">
                <path id="Fill_1323" data-name="Fill 1323" d="M.77,0c-1-.2-1.08,8.087.08,15.771,1.04,6.88,3.24,13.276,4.12,12.657C6.81,27.167,3.93.642.77,0" transform="translate(82.35 0.091)" fill="#aeb9d8"/>
                <path id="Fill_1325" data-name="Fill 1325" d="M.05.368c.36-.394,6.24-1.05,6.8,1.638.4,2.04-4.52,3.855-5.64,3.97A8.52,8.52,0,0,1,.05.368" transform="translate(83.79 12.136)" fill="#6d7897"/>
                <path id="Fill_1326" data-name="Fill 1326" d="M1.2,2.954c.56-.356,4.24-2.15,4-2.8-.28-.65-5.36.924-5.2,1.6.12.676.6,1.557,1.2,1.2" transform="translate(62.116 27.545)" fill="#f2bcb6"/>
                <path id="Fill_1327" data-name="Fill 1327" d="M16,.074c2.44-1.025,6.56,8.876,5.2,9.2-6.24,1.469-26.6,32.6-.8,38.8,1.12.275.36,2.607-1.6,2.4C-8.481,47.584-3.081,8.046,16,.074" transform="translate(0.121 46.425)" fill="#5348e3"/>
              </g>
              <g id="Group_1335" data-name="Group 1335" transform="translate(100.8 63)">
                <path id="Fill_1331" data-name="Fill 1331" d="M3.48,21.934c-1,0-2-.076-3.08-.152-.12-.01-.24-.02-.4-.029C.64,13.073,6.84,3.556,11.12,0q1.14,3.32,2.04,6.47L6,21.718a12.884,12.884,0,0,1-2.52.215" transform="translate(1.44 6.89)" fill="#f8d9af"/>
                <path id="Fill_1333" data-name="Fill 1333" d="M.089,31.813v0C-1.07,20.638,9.37,6.459,13.53,5.478c.72-.17-.08-2.992-1.36-5.478,1.28,2.487,2.08,5.308,1.36,5.478a6.66,6.66,0,0,0-2.36,1.391C6.89,10.425.689,19.942.05,28.622a21.238,21.238,0,0,0,.04,3.191" transform="translate(1.39 0.02)" fill="#343a3f"/>
                <path id="Fill_1334" data-name="Fill 1334" d="M1.311,31.811c-.04-.107-.08-.218-.12-.333C-3.889,16.087,8.631,2.972,13.391,0c1.28,2.486,2.08,5.308,1.36,5.478-4.16.98-14.6,15.16-13.44,26.333" transform="translate(0.169 0.02)" fill="#2d3182"/>
              </g>
              <path id="Fill_1336" data-name="Fill 1336" d="M3.982.516c6.28,3.436,9.24,18.128,7,19.171-1.6.768-3.92-.847-3.92-.847s-.6,6.918,4.6,9.254c-1.8,2.378-8.2,3.2-10.96-.178,3.56-2.59,2-10.181,1.4-12.2C-2.258.366,1.062-1.105,3.982.516" transform="translate(117.338 26.59)" fill="#f2bcb6"/>
              <g id="Group_1342" data-name="Group 1342" transform="translate(118.8 40)">
                <path id="Fill_1338" data-name="Fill 1338" d="M0,1.336V0A7.466,7.466,0,0,0,1.32.692Q.6,1.007,0,1.336" transform="translate(5.6 5.429)" fill="#fbdfd0"/>
                <path id="Fill_1340" data-name="Fill 1340" d="M.4,9.439h0L0,.638A3.457,3.457,0,0,0,.36,0Q.42.22.48.443a22.441,22.441,0,0,1,.88,6,12.665,12.665,0,0,1-.12,1.745A7.257,7.257,0,0,0,.4,9.439" transform="translate(0.16 1.86)" fill="#fbdfd0"/>
                <path id="Fill_1341" data-name="Fill 1341" d="M.88,9.954A12.665,12.665,0,0,0,1,8.209a22.441,22.441,0,0,0-.88-6Q.06,1.982,0,1.762A2.974,2.974,0,0,0,.44,0a13.052,13.052,0,0,0,6,6c0,.008,0,.015-.04.022A7.466,7.466,0,0,1,5.08,5.33V6.667A14.228,14.228,0,0,0,.88,9.954" transform="translate(0.52 0.098)" fill="#e98b96"/>
              </g>
              <g id="Group_1361" data-name="Group 1361">
                <path id="Fill_1343" data-name="Fill 1343" d="M9.36.44c.84,1.749.48,18.13-3.04,21.365S0,15.628,0,15.628L2.76,2.715S8.52-1.308,9.36.44" transform="translate(111.12 25.078)" fill="#f8d9af"/>
                <path id="Fill_1352" data-name="Fill 1352" d="M.215,23.811C-1.147,22.267,4.261,11.6,8.027,17.129c2-23.936,41.424-20.354,22.395-4.154C41.759,9.5,55.9,12.769,42.32,22c1.122-.842,6.971-.525,7.652,1.354,1.362,3.687-47.314,3.2-49.757.452" fill="#c4e2e6" opacity="0.498"/>
              </g>
            </g>
          </g>
        </g>
      </g>
    </g>
  </g>
</svg>
