<?xml version="1.0" encoding="utf-8"?>
<!-- Generator: Adobe Illustrator 23.0.3, SVG Export Plug-In . SVG Version: 6.00 Build 0)  -->
<svg version="1.1" id="Capa_1" xmlns="http://www.w3.org/2000/svg" xmlns:xlink="http://www.w3.org/1999/xlink" x="0px" y="0px"
	 viewBox="0 0 512 512" style="enable-background:new 0 0 512 512;" xml:space="preserve">
<style type="text/css">
	.st0{fill:#F9F8F9;}
	.st1{fill:#E3E0E4;}
	.st2{fill:#DC4955;}
	.st3{fill:#C42430;}
</style>
<g>
	<g>
		<path class="st0" d="M459.3,466.3c0,25.2-20.5,45.7-45.8,45.7H98.5c-25.3,0-45.8-20.5-45.8-45.7V45.7C52.7,20.5,73.2,0,98.5,0h196
			c9.1,0,17.9,3.6,24.3,10.1l130.3,130.3c6.4,6.4,10,15.1,10,24.2V466.3z"/>
		<path class="st1" d="M129.4,512H98.5c-25.3,0-45.8-20.5-45.8-45.7V45.7C52.7,20.5,73.2,0,98.5,0h30.9c-25.3,0-45.8,20.5-45.8,45.7
			v420.6C83.6,491.5,104.2,512,129.4,512z"/>
		<path class="st1" d="M459.3,164.6v16.7H339.8c-34.1,0-61.9-27.8-61.9-61.9V0h16.7c9.1,0,17.9,3.6,24.3,10.1l130.3,130.3
			C455.7,146.8,459.3,155.5,459.3,164.6z"/>
		<path class="st2" d="M456.2,150.4H339.8c-17.1,0-31-13.9-31-31V3.1c3.7,1.7,7.1,4,10.1,7l130.3,130.3
			C452.2,143.3,454.5,146.7,456.2,150.4L456.2,150.4z"/>
		<path class="st2" d="M440.4,444H71.6c-22.8,0-41.2-18.5-41.2-41.2V252.4c0-22.8,18.5-41.2,41.2-41.2h368.8
			c22.8,0,41.2,18.4,41.2,41.2v150.4C481.6,425.6,463.2,444,440.4,444z"/>
		<path class="st3" d="M97.4,444H71.6c-22.8,0-41.2-18.5-41.2-41.2V252.4c0-22.8,18.5-41.2,41.2-41.2h25.8
			c-22.8,0-41.2,18.5-41.2,41.2v150.4C56.1,425.6,74.6,444,97.4,444z"/>
		<g>
			<path class="st0" d="M388.1,277c4.3,0,7.7-3.5,7.7-7.7s-3.5-7.7-7.7-7.7h-47.2c-4.3,0-7.7,3.5-7.7,7.7v116.6
				c0,4.3,3.5,7.7,7.7,7.7s7.7-3.5,7.7-7.7v-51.7h35.8c4.3,0,7.7-3.5,7.7-7.7s-3.5-7.7-7.7-7.7h-35.8V277L388.1,277z"/>
			<path class="st0" d="M258.7,262.9h-32.3c-2.1,0-4,0.8-5.5,2.3s-2.3,3.4-2.3,5.5v0.1v0v112c0,0.6,0.1,1.3,0.2,1.8v0
				c0,2,0.8,4,2.3,5.5c1.4,1.4,3.4,2.2,5.4,2.2h0c1,0,23.9-0.1,33.1-0.3c15.5-0.3,29.3-7.3,38.9-19.8c8.9-11.6,13.8-27.4,13.8-44.7
				C312.5,288.9,290.9,262.9,258.7,262.9L258.7,262.9z M259.6,376.6c-5.8,0.1-17.4,0.2-25.2,0.2c0-12.7-0.1-37.9-0.1-49.3
				c0-9.6,0-35.9-0.1-49.1h24.5c28.2,0,38.3,25.4,38.3,49.3C297,356.1,281.6,376.2,259.6,376.6z"/>
		</g>
	</g>
	<path class="st0" d="M146.3,261.4h-33c-6.7,0-7.1,2.9-7.1,7.1v118.4c0,3.9,3.2,7.1,7.1,7.1c3.9,0,7.1-3.2,7.1-7.1v-44.4
		c7.7,0,19.9-0.1,25.9-0.1c22.7,0,41.2-18.2,41.2-40.5C187.5,279.6,169,261.4,146.3,261.4L146.3,261.4z M146.3,328.3
		c-5.9,0-18,0.1-25.7,0.1c0-7.9-0.1-20.4-0.1-26.4c0-5.1,0-18.1-0.1-26.3h25.8c14.6,0,27,12,27,26.3
		C173.3,316.2,161,328.3,146.3,328.3L146.3,328.3z"/>
</g>
</svg>
